<svg xmlns="http://www.w3.org/2000/svg" width="111" height="33" viewBox="0 0 111 33" fill="none">
<path d="M94.3935 0.0654297H53.7635C49.0835 0.0654297 44.8735 2.08543 41.9435 5.28543L38.5535 8.64543C36.7135 10.4754 33.7535 10.4754 31.9135 8.64543L28.5235 5.29543C25.5835 2.08543 21.3735 0.0654297 16.6835 0.0654297C7.81353 0.0654297 0.623535 7.25543 0.623535 16.1254C0.623535 24.9954 7.81353 32.1854 16.6835 32.1854C21.3735 32.1854 25.5835 30.1654 28.5235 26.9554L31.9135 23.6054C33.7535 21.7754 36.7135 21.7754 38.5535 23.6054L41.9435 26.9754C44.8835 30.1654 49.0835 32.1854 53.7735 32.1854H94.4035C103.274 32.1854 110.464 24.9954 110.464 16.1254C110.464 7.25543 103.264 0.0654297 94.3935 0.0654297Z" fill="url(#paint0_linear_1529_797)" style=""/>
<path d="M20.4911 14.8844C20.6901 13.5538 19.677 12.8385 18.2917 12.3613L18.7411 10.5588L17.6439 10.2853L17.2064 12.0403C16.918 11.9685 16.6217 11.9006 16.3273 11.8335L16.768 10.0669L15.6714 9.79346L15.2217 11.5953C14.983 11.541 14.7486 11.4872 14.5211 11.4306L14.5223 11.425L13.0092 11.0472L12.7173 12.2191C12.7173 12.2191 13.5314 12.4056 13.5142 12.4172C13.9586 12.5281 14.0389 12.8222 14.0255 13.0553L13.5136 15.1088C13.5442 15.1166 13.5839 15.1278 13.6276 15.1453C13.5911 15.1363 13.552 15.1263 13.5117 15.1166L12.7942 17.9931C12.7398 18.1281 12.602 18.3306 12.2914 18.2538C12.3023 18.2697 11.4939 18.0547 11.4939 18.0547L10.9492 19.3106L12.377 19.6666C12.6427 19.7331 12.903 19.8028 13.1592 19.8684L12.7052 21.6916L13.8011 21.965L14.2508 20.1612C14.5501 20.2425 14.8408 20.3175 15.1251 20.3881L14.677 22.1834L15.7742 22.4569L16.2283 20.6372C18.0992 20.9912 19.5061 20.8484 20.0983 19.1562C20.5754 17.7938 20.0745 17.0078 19.0901 16.4953C19.807 16.33 20.347 15.8584 20.4911 14.8844ZM17.9842 18.3997C17.6451 19.7622 15.3511 19.0256 14.6073 18.8409L15.2098 16.4256C15.9536 16.6113 18.3386 16.9788 17.9842 18.3997ZM18.3236 14.8647C18.0142 16.1041 16.1048 15.4744 15.4855 15.32L16.0317 13.1294C16.6511 13.2838 18.6458 13.5719 18.3236 14.8647Z" fill="#F7F6F5" style="fill:#F7F6F5;fill:color(display-p3 0.9686 0.9647 0.9608);fill-opacity:1;"/>
<defs>
<linearGradient id="paint0_linear_1529_797" x1="14.7809" y1="32.1854" x2="51.2504" y2="14.4092" gradientUnits="userSpaceOnUse">
<stop stop-color="#FF9835" style="stop-color:#FF9835;stop-color:color(display-p3 1.0000 0.5961 0.2078);stop-opacity:1;"/>
<stop offset="0.941202" stop-color="#ECEAE8" style="stop-color:#ECEAE8;stop-color:color(display-p3 0.9255 0.9176 0.9098);stop-opacity:1;"/>
</linearGradient>
</defs>
</svg>