<svg xmlns="http://www.w3.org/2000/svg" width="54" height="33" viewBox="0 0 54 33" fill="none">
<path d="M53.7635 0.642578C49.0835 0.642578 44.8735 2.66258 41.9435 5.86258L38.5535 9.22258C36.7135 11.0526 33.7535 11.0526 31.9135 9.22258L28.5235 5.87258C25.5835 2.66258 21.3735 0.642578 16.6835 0.642578C7.81353 0.642578 0.623535 7.83258 0.623535 16.7026C0.623535 25.5726 7.81353 32.7626 16.6835 32.7626C21.3735 32.7626 25.5835 30.7426 28.5235 27.5326L31.9135 24.1826C33.7535 22.3526 36.7135 22.3526 38.5535 24.1826L41.9435 27.5526C44.8835 30.7426 49.0835 32.7626 53.7735 32.7626V0.642578H53.7635Z" fill="url(#paint0_linear_2893_13796)" style=""/>
<path d="M21.4422 15.462C21.6413 14.1314 20.6282 13.4161 19.2429 12.9389L19.6922 11.1364L18.5951 10.863L18.1576 12.618C17.8691 12.5461 17.5729 12.4783 17.2785 12.4111L17.7191 10.6445L16.6226 10.3711L16.1729 12.173C15.9341 12.1186 15.6998 12.0648 15.4723 12.0083L15.4735 12.0027L13.9604 11.6248L13.6685 12.7967C13.6685 12.7967 14.4826 12.9833 14.4654 12.9948C14.9098 13.1058 14.9901 13.3998 14.9766 13.633L14.4648 15.6864C14.4954 15.6942 14.5351 15.7055 14.5788 15.723C14.5423 15.7139 14.5032 15.7039 14.4629 15.6942L13.7454 18.5708C13.691 18.7058 13.5532 18.9083 13.2426 18.8314C13.2535 18.8473 12.4451 18.6323 12.4451 18.6323L11.9004 19.8883L13.3282 20.2442C13.5938 20.3108 13.8541 20.3804 14.1104 20.4461L13.6563 22.2692L14.7523 22.5426L15.2019 20.7389C15.5013 20.8201 15.7919 20.8951 16.0763 20.9658L15.6282 22.7611L16.7254 23.0345L17.1794 21.2148C19.0504 21.5689 20.4572 21.4261 21.0494 19.7339C21.5266 18.3714 21.0257 17.5855 20.0413 17.073C20.7582 16.9076 21.2982 16.4361 21.4422 15.462ZM18.9354 18.9773C18.5963 20.3398 16.3023 19.6033 15.5585 19.4186L16.161 17.0033C16.9048 17.1889 19.2897 17.5564 18.9354 18.9773ZM19.2747 15.4423C18.9654 16.6817 17.056 16.052 16.4366 15.8976L16.9829 13.707C17.6023 13.8614 19.5969 14.1495 19.2747 15.4423Z" fill="#F7F6F5" style="fill:#F7F6F5;fill:color(display-p3 0.9686 0.9647 0.9608);fill-opacity:1;"/>
<defs>
<linearGradient id="paint0_linear_2893_13796" x1="16.7123" y1="25.3231" x2="50.2688" y2="16.7901" gradientUnits="userSpaceOnUse">
<stop stop-color="#FF9835" style="stop-color:#FF9835;stop-color:color(display-p3 1.0000 0.5961 0.2078);stop-opacity:1;"/>
<stop offset="0.941202" stop-color="#ECEAE8" style="stop-color:#ECEAE8;stop-color:color(display-p3 0.9255 0.9176 0.9098);stop-opacity:1;"/>
</linearGradient>
</defs>
</svg>