<svg width="110" height="33" viewBox="0 0 110 33" fill="none" xmlns="http://www.w3.org/2000/svg">
<path d="M93.9087 0.0654297H53.2787C48.5987 0.0654297 44.3887 2.08543 41.4587 5.28543L38.0687 8.64543C36.2287 10.4754 33.2687 10.4754 31.4287 8.64543L28.0387 5.29543C25.0987 2.08543 20.8887 0.0654297 16.1987 0.0654297C7.32867 0.0654297 0.138672 7.25543 0.138672 16.1254C0.138672 24.9954 7.32867 32.1854 16.1987 32.1854C20.8887 32.1854 25.0987 30.1654 28.0387 26.9554L31.4287 23.6054C33.2687 21.7754 36.2287 21.7754 38.0687 23.6054L41.4587 26.9754C44.3987 30.1654 48.5987 32.1854 53.2887 32.1854H93.9187C102.789 32.1854 109.979 24.9954 109.979 16.1254C109.979 7.25543 102.779 0.0654297 93.9087 0.0654297Z" fill="url(#paint0_linear_1803_9474)" style=""/>
<path d="M20.0062 14.8844C20.2053 13.5538 19.1921 12.8385 17.8068 12.3613L18.2562 10.5588L17.159 10.2853L16.7215 12.0403C16.4331 11.9685 16.1368 11.9006 15.8425 11.8335L16.2831 10.0669L15.1865 9.79346L14.7368 11.5953C14.4981 11.541 14.2637 11.4872 14.0362 11.4306L14.0375 11.425L12.5244 11.0472L12.2325 12.2191C12.2325 12.2191 13.0465 12.4056 13.0293 12.4172C13.4737 12.5281 13.554 12.8222 13.5406 13.0553L13.0287 15.1088C13.0593 15.1166 13.099 15.1278 13.1428 15.1453C13.1062 15.1363 13.0672 15.1263 13.0268 15.1166L12.3094 17.9931C12.255 18.1281 12.1172 18.3306 11.8065 18.2538C11.8175 18.2697 11.009 18.0547 11.009 18.0547L10.4644 19.3106L11.8922 19.6666C12.1578 19.7331 12.4181 19.8028 12.6744 19.8684L12.2203 21.6916L13.3162 21.965L13.7659 20.1612C14.0653 20.2425 14.3559 20.3175 14.6403 20.3881L14.1922 22.1834L15.2893 22.4569L15.7434 20.6372C17.6143 20.9912 19.0212 20.8484 19.6134 19.1562C20.0906 17.7938 19.5896 17.0078 18.6053 16.4953C19.3221 16.33 19.8621 15.8584 20.0062 14.8844ZM17.4993 18.3997C17.1603 19.7622 14.8662 19.0256 14.1225 18.8409L14.725 16.4256C15.4687 16.6113 17.8537 16.9788 17.4993 18.3997ZM17.8387 14.8647C17.5293 16.1041 15.62 15.4744 15.0006 15.32L15.5468 13.1294C16.1662 13.2838 18.1609 13.5719 17.8387 14.8647Z" fill="#F7F6F5" style="fill:#F7F6F5;fill:color(display-p3 0.9686 0.9647 0.9608);fill-opacity:1;"/>
<defs>
<linearGradient id="paint0_linear_1803_9474" x1="14.296" y1="32.1854" x2="50.7656" y2="14.4092" gradientUnits="userSpaceOnUse">
<stop stop-color="#FF9835" style="stop-color:#FF9835;stop-color:color(display-p3 1.0000 0.5961 0.2078);stop-opacity:1;"/>
<stop offset="0.941202" stop-color="#2D2C2A" style="stop-color:#2D2C2A;stop-color:color(display-p3 0.1765 0.1725 0.1647);stop-opacity:1;"/>
</linearGradient>
</defs>
</svg>
