<svg width="24" height="25" viewBox="0 0 24 25" fill="none" xmlns="http://www.w3.org/2000/svg">
<path fill-rule="evenodd" clip-rule="evenodd" d="M0.296084 2.33837C-1.11759e-07 3.02258 -7.61996e-08 3.89509 0 5.6401L2.85426e-07 12.1681L5.70773e-07 18.6961C6.4705e-07 20.4411 0 21.3136 0.296084 21.9978C0.659732 22.8382 1.32993 23.5084 2.17027 23.872C2.85448 24.1681 3.72698 24.1681 5.472 24.1681H12H18.528C20.273 24.1681 21.1455 24.1681 21.8297 23.872C22.6701 23.5084 23.3403 22.8382 23.7039 21.9978C24 21.3136 24 20.4411 24 18.6961V12.1681V5.6401C24 3.89509 24 3.02258 23.7039 2.33837C23.3403 1.49803 22.6701 0.827832 21.8297 0.464185C21.1455 0.168102 20.273 0.168102 18.528 0.168102L12 0.168103L5.472 0.168103C3.72698 0.168103 2.8125 0.168103 2.17027 0.464186C1.32993 0.827835 0.659732 1.49803 0.296084 2.33837ZM15.8313 10.5074C14.6336 10.5074 13.6625 9.53628 13.6625 8.33833C13.6625 7.14098 14.6336 6.16986 15.8313 6.16986C17.029 6.16986 18.0001 7.14098 18.0001 8.33833C18.0001 9.53628 17.029 10.5074 15.8313 10.5074ZM10.3357 8.33811C10.3357 9.53526 9.36506 10.506 8.16764 10.506C6.97083 10.506 6.00015 9.53526 6.00015 8.33811C6.00015 7.14096 6.97083 6.17025 8.16764 6.17025C9.36506 6.17025 10.3357 7.14096 10.3357 8.33811ZM15.8315 13.8373C14.6336 13.8373 13.6625 14.8084 13.6625 16.0061C13.6625 17.2038 14.6336 18.1749 15.8315 18.1749C17.0289 18.1749 18 17.2038 18 16.0061C18 14.8084 17.0289 13.8373 15.8315 13.8373ZM8.16783 13.8394C9.36497 13.8394 10.3357 14.8101 10.3357 16.0075C10.3357 17.2043 9.36497 18.1749 8.16783 18.1749C6.9707 18.1749 6 17.2043 6 16.0075C6 14.8101 6.9707 13.8394 8.16783 13.8394Z" fill="white"/>
<circle cx="18" cy="18.1681" r="5.14286" fill="white"/>
<path d="M18.6 18.7681H17.4V15.1681H18.6V18.7681ZM18.6 21.1681H17.4V19.9681H18.6V21.1681ZM18 12.1681C17.2121 12.1681 16.4319 12.3233 15.7039 12.6248C14.9759 12.9264 14.3145 13.3683 13.7574 13.9255C12.6321 15.0507 12 16.5768 12 18.1681C12 19.7594 12.6321 21.2855 13.7574 22.4107C14.3145 22.9679 14.9759 23.4099 15.7039 23.7114C16.4319 24.0129 17.2121 24.1681 18 24.1681C19.5913 24.1681 21.1174 23.536 22.2426 22.4107C23.3679 21.2855 24 19.7594 24 18.1681C24 17.3802 23.8448 16.6 23.5433 15.872C23.2417 15.144 22.7998 14.4826 22.2426 13.9255C21.6855 13.3683 21.0241 12.9264 20.2961 12.6248C19.5681 12.3233 18.7879 12.1681 18 12.1681V12.1681Z" fill="#D4001A"/>
<path fill-rule="evenodd" clip-rule="evenodd" d="M18.101 24.1681H18.528C20.273 24.1681 21.1455 24.1681 21.8297 23.872C22.6701 23.5084 23.3403 22.8382 23.7039 21.9978C24 21.3136 24 20.4411 24 18.6961V18.3678L18.101 24.1681Z" fill="#D4001A"/>
</svg>
