<svg width="24" height="24" viewBox="0 0 24 24" fill="none" xmlns="http://www.w3.org/2000/svg">
<path fill-rule="evenodd" clip-rule="evenodd" d="M0.296084 2.17027C-1.11759e-07 2.85448 -7.61996e-08 3.72699 0 5.472L2.85426e-07 12L5.70773e-07 18.528C6.4705e-07 20.273 0 21.1455 0.296084 21.8297C0.659732 22.6701 1.32993 23.3403 2.17027 23.7039C2.85448 24 3.72698 24 5.472 24H12H18.528C20.273 24 21.1455 24 21.8297 23.7039C22.6701 23.3403 23.3403 22.6701 23.7039 21.8297C24 21.1455 24 20.273 24 18.528V12V5.472C24 3.72698 24 2.85448 23.7039 2.17027C23.3403 1.32993 22.6701 0.65973 21.8297 0.296083C21.1455 -1.3411e-07 20.273 -7.61996e-08 18.528 0L12 2.85426e-07L5.472 5.70774e-07C3.72698 6.47051e-07 2.8125 5.81145e-07 2.17027 0.296084C1.32993 0.659733 0.659732 1.32993 0.296084 2.17027ZM15.8313 10.3393C14.6336 10.3393 13.6625 9.36817 13.6625 8.17022C13.6625 6.97287 14.6336 6.00176 15.8313 6.00176C17.029 6.00176 18.0001 6.97287 18.0001 8.17022C18.0001 9.36817 17.029 10.3393 15.8313 10.3393ZM10.3357 8.17001C10.3357 9.36716 9.36506 10.3379 8.16764 10.3379C6.97083 10.3379 6.00015 9.36716 6.00015 8.17001C6.00015 6.97286 6.97083 6.00215 8.16764 6.00215C9.36506 6.00215 10.3357 6.97286 10.3357 8.17001ZM15.8315 13.6692C14.6336 13.6692 13.6625 14.6403 13.6625 15.838C13.6625 17.0357 14.6336 18.0068 15.8315 18.0068C17.0289 18.0068 18 17.0357 18 15.838C18 14.6403 17.0289 13.6692 15.8315 13.6692ZM8.16783 13.6713C9.36497 13.6713 10.3357 14.642 10.3357 15.8394C10.3357 17.0362 9.36497 18.0068 8.16783 18.0068C6.9707 18.0068 6 17.0362 6 15.8394C6 14.642 6.9707 13.6713 8.16783 13.6713Z" fill="#0F1117"/>
<circle cx="18" cy="18" r="5.14286" fill="white"/>
<path d="M18 12C16.8133 12 15.6533 12.3519 14.6666 13.0112C13.6799 13.6705 12.9109 14.6075 12.4567 15.7039C12.0026 16.8003 11.8838 18.0067 12.1153 19.1705C12.3468 20.3344 12.9182 21.4035 13.7574 22.2426C14.5965 23.0818 15.6656 23.6532 16.8295 23.8847C17.9933 24.1162 19.1997 23.9974 20.2961 23.5433C21.3925 23.0891 22.3295 22.3201 22.9888 21.3334C23.6481 20.3467 24 19.1867 24 18C24 17.2121 23.8448 16.4319 23.5433 15.7039C23.2417 14.9759 22.7998 14.3145 22.2426 13.7574C21.6855 13.2002 21.0241 12.7583 20.2961 12.4567C19.5681 12.1552 18.7879 12 18 12ZM21.6 17.4H18.6L19.686 16.314C19.4666 16.0889 19.2044 15.9097 18.9149 15.7871C18.6254 15.6645 18.3144 15.6009 18 15.6C17.5508 15.5985 17.1102 15.7232 16.7283 15.9597C16.3464 16.1963 16.0386 16.5353 15.8399 16.9382C15.6411 17.341 15.5594 17.7916 15.6041 18.2385C15.6488 18.6855 15.818 19.111 16.0925 19.4666C16.367 19.8222 16.7358 20.0936 17.1569 20.2499C17.578 20.4063 18.0346 20.4413 18.4746 20.351C18.9146 20.2607 19.3205 20.0487 19.646 19.7392C19.9716 19.4296 20.2037 19.0349 20.316 18.6H21.546C21.4316 19.2769 21.126 19.907 20.6653 20.416C20.2045 20.9249 19.6079 21.2915 18.9457 21.4726C18.2835 21.6536 17.5833 21.6415 16.9277 21.4377C16.2721 21.2339 15.6885 20.847 15.2456 20.3224C14.8028 19.7978 14.5191 19.1576 14.4281 18.4771C14.3371 17.7967 14.4426 17.1044 14.7321 16.4819C15.0216 15.8594 15.4831 15.3327 16.0621 14.9638C16.6411 14.5949 17.3135 14.3993 18 14.4C18.4719 14.4006 18.9389 14.4954 19.3737 14.6788C19.8084 14.8621 20.2022 15.1305 20.532 15.468L21.6 14.4V17.4Z" fill="#F7AA00"/>
<path fill-rule="evenodd" clip-rule="evenodd" d="M18.101 24H18.528C20.273 24 21.1455 24 21.8297 23.7039C22.6701 23.3403 23.3403 22.6701 23.7039 21.8297C24 21.1455 24 20.273 24 18.528V18.1997L18.101 24Z" fill="#F7AA00"/>
</svg>
