<svg width="24" height="25" viewBox="0 0 24 25" fill="none" xmlns="http://www.w3.org/2000/svg">
<path fill-rule="evenodd" clip-rule="evenodd" d="M0.296084 2.33837C-1.11759e-07 3.02258 -7.61996e-08 3.89509 0 5.6401L2.85426e-07 12.1681L5.70773e-07 18.6961C6.4705e-07 20.4411 0 21.3136 0.296084 21.9978C0.659732 22.8382 1.32993 23.5084 2.17027 23.872C2.85448 24.1681 3.72698 24.1681 5.472 24.1681H12H18.528C20.273 24.1681 21.1455 24.1681 21.8297 23.872C22.6701 23.5084 23.3403 22.8382 23.7039 21.9978C24 21.3136 24 20.4411 24 18.6961V12.1681V5.6401C24 3.89509 24 3.02258 23.7039 2.33837C23.3403 1.49803 22.6701 0.827832 21.8297 0.464185C21.1455 0.168102 20.273 0.168102 18.528 0.168102L12 0.168103L5.472 0.168103C3.72698 0.168103 2.8125 0.168103 2.17027 0.464186C1.32993 0.827835 0.659732 1.49803 0.296084 2.33837ZM15.8313 10.5074C14.6336 10.5074 13.6625 9.53628 13.6625 8.33833C13.6625 7.14098 14.6336 6.16986 15.8313 6.16986C17.029 6.16986 18.0001 7.14098 18.0001 8.33833C18.0001 9.53628 17.029 10.5074 15.8313 10.5074ZM10.3357 8.33811C10.3357 9.53526 9.36506 10.506 8.16764 10.506C6.97083 10.506 6.00015 9.53526 6.00015 8.33811C6.00015 7.14096 6.97083 6.17025 8.16764 6.17025C9.36506 6.17025 10.3357 7.14096 10.3357 8.33811ZM15.8315 13.8373C14.6336 13.8373 13.6625 14.8084 13.6625 16.0061C13.6625 17.2038 14.6336 18.1749 15.8315 18.1749C17.0289 18.1749 18 17.2038 18 16.0061C18 14.8084 17.0289 13.8373 15.8315 13.8373ZM8.16783 13.8394C9.36497 13.8394 10.3357 14.8101 10.3357 16.0075C10.3357 17.2043 9.36497 18.1749 8.16783 18.1749C6.9707 18.1749 6 17.2043 6 16.0075C6 14.8101 6.9707 13.8394 8.16783 13.8394Z" fill="white"/>
<circle cx="18" cy="18.1681" r="5.14286" fill="white"/>
<path d="M18 12.1681C16.8133 12.1681 15.6533 12.52 14.6666 13.1793C13.6799 13.8386 12.9109 14.7756 12.4567 15.872C12.0026 16.9684 11.8838 18.1748 12.1153 19.3386C12.3468 20.5025 12.9182 21.5716 13.7574 22.4107C14.5965 23.2499 15.6656 23.8213 16.8295 24.0528C17.9933 24.2843 19.1997 24.1655 20.2961 23.7114C21.3925 23.2573 22.3295 22.4882 22.9888 21.5015C23.6481 20.5148 24 19.3548 24 18.1681C24 17.3802 23.8448 16.6 23.5433 15.872C23.2417 15.144 22.7998 14.4826 22.2426 13.9255C21.6855 13.3683 21.0241 12.9264 20.2961 12.6248C19.5681 12.3233 18.7879 12.1681 18 12.1681ZM21.6 17.5681H18.6L19.686 16.4821C19.4666 16.257 19.2044 16.0778 18.9149 15.9552C18.6254 15.8326 18.3144 15.769 18 15.7681C17.5508 15.7666 17.1102 15.8913 16.7283 16.1279C16.3464 16.3644 16.0386 16.7034 15.8399 17.1063C15.6411 17.5091 15.5594 17.9597 15.6041 18.4066C15.6488 18.8536 15.818 19.2791 16.0925 19.6347C16.367 19.9903 16.7358 20.2617 17.1569 20.418C17.578 20.5744 18.0346 20.6094 18.4746 20.5191C18.9146 20.4288 19.3205 20.2168 19.646 19.9073C19.9716 19.5977 20.2037 19.203 20.316 18.7681H21.546C21.4316 19.445 21.126 20.0751 20.6653 20.5841C20.2045 21.093 19.6079 21.4596 18.9457 21.6407C18.2835 21.8217 17.5833 21.8096 16.9277 21.6058C16.2721 21.402 15.6885 21.0151 15.2456 20.4905C14.8028 19.9659 14.5191 19.3257 14.4281 18.6452C14.3371 17.9648 14.4426 17.2725 14.7321 16.65C15.0216 16.0275 15.4831 15.5008 16.0621 15.1319C16.6411 14.763 17.3135 14.5674 18 14.5681C18.4719 14.5687 18.9389 14.6635 19.3737 14.8469C19.8084 15.0302 20.2022 15.2986 20.532 15.6361L21.6 14.5681V17.5681Z" fill="#F7AA00"/>
<path fill-rule="evenodd" clip-rule="evenodd" d="M18.101 24.1681H18.528C20.273 24.1681 21.1455 24.1681 21.8297 23.872C22.6701 23.5084 23.3403 22.8382 23.7039 21.9978C24 21.3136 24 20.4411 24 18.6961V18.3678L18.101 24.1681Z" fill="#F7AA00"/>
</svg>
