<svg xmlns="http://www.w3.org/2000/svg" width="98" height="33" viewBox="0 0 98 33" fill="none">
<path d="M81.1572 0.0654297H53.5272C48.8472 0.0654297 44.6372 2.08543 41.7072 5.28543L38.3172 8.64543C36.4772 10.4754 33.5172 10.4754 31.6772 8.64543L28.2872 5.29543C25.3472 2.08543 21.1372 0.0654297 16.4472 0.0654297C7.57721 0.0654297 0.387207 7.25543 0.387207 16.1254C0.387207 24.9954 7.57721 32.1854 16.4472 32.1854C21.1372 32.1854 25.3472 30.1654 28.2872 26.9554L31.6772 23.6054C33.5172 21.7754 36.4772 21.7754 38.3172 23.6054L41.7072 26.9754C44.6472 30.1654 48.8472 32.1854 53.5372 32.1854H81.1672C90.0372 32.1854 97.2272 24.9954 97.2272 16.1254C97.2272 7.25543 90.0272 0.0654297 81.1572 0.0654297Z" fill="url(#paint0_linear_1529_800)" style=""/>
<path d="M14.4935 14.2674L14.4933 14.2673L14.4954 14.2636C14.5261 14.2101 14.5228 14.1413 14.4855 14.0843C14.4855 14.0842 14.4855 14.0842 14.4854 14.0841L12.5839 11.2163L12.5839 11.2163L12.5834 11.2155C12.5243 11.1221 12.5166 11.0064 12.5705 10.9099C12.6243 10.8077 12.7252 10.7533 12.8316 10.7533H13.5718C13.6667 10.7533 13.7599 10.8016 13.8192 10.8887L13.8195 10.8892L16.04 14.2497L16.0401 14.2498C16.0884 14.3235 16.1652 14.363 16.2535 14.363H16.5325C16.6191 14.363 16.6969 14.3191 16.7462 14.2492L18.9545 10.8841C19.0091 10.7944 19.1096 10.7475 19.2028 10.7475H19.9429C20.0494 10.7475 20.1569 10.808 20.2049 10.9115C20.258 11.0138 20.2439 11.1284 20.1916 11.2148L20.1917 11.2148L20.1907 11.2163L18.289 14.0901L18.289 14.0901L18.2881 14.0914C18.2524 14.1413 18.2481 14.2095 18.2791 14.2636L18.2798 14.265C18.3122 14.3261 18.3656 14.3572 18.4284 14.3572H21.3379C21.5061 14.3572 21.6328 14.4944 21.6328 14.6566V15.2823C21.6328 15.4516 21.4991 15.5817 21.3379 15.5817H11.4367C11.2684 15.5817 11.1417 15.4445 11.1417 15.2823V14.6566C11.1417 14.5004 11.2556 14.3779 11.4021 14.3576L11.402 14.3572H11.4082H11.4083H11.4083H11.4084H11.4085H11.4085H11.4086H11.4087H11.4087H11.4088H11.4089H11.4089H11.409H11.4091H11.4091H11.4092H11.4093H11.4093H11.4094H11.4095H11.4095H11.4096H11.4097H11.4097H11.4098H11.4099H11.4099H11.41H11.4101H11.4101H11.4102H11.4103H11.4103H11.4104H11.4105H11.4105H11.4106H11.4107H11.4107H11.4108H11.4109H11.4109H11.411H11.4111H11.4111H11.4112H11.4113H11.4113H11.4114H11.4115H11.4115H11.4116H11.4117H11.4117H11.4118H11.4119H11.4119H11.412H11.4121H11.4121H11.4122H11.4123H11.4123H11.4124H11.4125H11.4125H11.4126H11.4127H11.4127H11.4128H11.4129H11.4129H11.413H11.4131H11.4131H11.4132H11.4133H11.4133H11.4134H11.4135H11.4135H11.4136H11.4137H11.4137H11.4138H11.4139H11.4139H11.414H11.4141H11.4141H11.4142H11.4143H11.4143H11.4144H11.4145H11.4145H11.4146H11.4147H11.4147H11.4148H11.4149H11.4149H11.415H11.4151H11.4151H11.4152H11.4153H11.4153H11.4154H11.4155H11.4155H11.4156H11.4157H11.4157H11.4158H11.4159H11.4159H11.416H11.4161H11.4161H11.4162H11.4163H11.4163H11.4164H11.4165H11.4165H11.4166H11.4167H11.4167H11.4168H11.4169H11.4169H11.417H11.4171H11.4171H11.4172H11.4173H11.4173H11.4174H11.4175H11.4175H11.4176H11.4177H11.4177H11.4178H11.4179H11.4179H11.418H11.4181H11.4181H11.4182H11.4183H11.4183H11.4184H11.4185H11.4185H11.4186H11.4187H11.4187H11.4188H11.4189H11.4189H11.419H11.4191H11.4191H11.4192H11.4193H11.4193H11.4194H11.4195H11.4195H11.4196H11.4197H11.4197H11.4198H11.4199H11.4199H11.42H11.4201H11.4201H11.4202H11.4203H11.4203H11.4204H11.4205H11.4205H11.4206H11.4207H11.4207H11.4208H11.4209H11.4209H11.421H11.4211H11.4211H11.4212H11.4213H11.4213H11.4214H11.4215H11.4215H11.4216H11.4217H11.4217H11.4218H11.4219H11.4219H11.422H11.4221H11.4221H11.4222H11.4223H11.4223H11.4224H11.4225H11.4225H11.4226H11.4227H11.4227H11.4228H11.4229H11.4229H11.423H11.4231H11.4231H11.4232H11.4233H11.4233H11.4234H11.4235H11.4235H11.4236H11.4237H11.4237H11.4238H11.4239H11.4239H11.424H11.4241H11.4241H11.4242H11.4243H11.4243H11.4244H11.4245H11.4245H11.4246H11.4247H11.4247H11.4248H11.4249H11.4249H11.425H11.4251H11.4251H11.4252H11.4253H11.4253H11.4254H11.4255H11.4255H11.4256H11.4257H11.4257H11.4258H11.4259H11.426H11.426H11.4261H11.4262H11.4262H11.4263H11.4264H11.4264H11.4265H11.4265H11.4266H11.4267H11.4268H11.4268H11.4269H11.427H11.427H11.4271H11.4272H11.4272H11.4273H11.4274H11.4274H11.4275H11.4276H11.4276H11.4277H11.4278H11.4278H11.4279H11.428H11.428H11.4281H11.4282H11.4282H11.4283H11.4284H11.4284H11.4285H11.4286H11.4286H11.4287H11.4288H11.4288H11.4289H11.429H11.429H11.4291H11.4292H11.4292H11.4293H11.4294H11.4294H11.4295H11.4296H11.4296H11.4297H11.4298H11.4298H11.4299H11.43H11.43H11.4301H11.4302H11.4302H11.4303H11.4304H11.4304H11.4305H11.4306H11.4306H11.4307H11.4308H11.4308H11.4309H11.431H11.431H11.4311H11.4312H11.4312H11.4313H11.4314H11.4314H11.4315H11.4316H11.4316H11.4317H11.4318H11.4318H11.4319H11.432H11.432H11.4321H11.4322H11.4322H11.4323H11.4324H11.4324H11.4325H11.4326H11.4326H11.4327H11.4328H11.4328H11.4329H11.433H11.433H11.4331H11.4332H11.4332H11.4333H11.4334H11.4334H11.4335H11.4336H11.4336H11.4337H11.4338H11.4338H11.4339H11.434H11.434H11.4341H11.4342H11.4342H11.4343H11.4344H11.4344H11.4345H11.4346H11.4346H11.4347H11.4348H11.4348H11.4349H11.435H11.435H11.4351H11.4352H11.4352H11.4353H11.4354H11.4354H11.4355H11.4356H11.4356H11.4357H11.4358H11.4358H11.4359H11.436H11.436H11.4361H11.4362H11.4362H11.4363H11.4364H11.4364H11.4365H11.4366H11.4366H11.4367H11.4368H11.4368H11.4369H11.437H11.437H11.4371H11.4372H11.4372H11.4373H11.4374H11.4374H11.4375H11.4376H11.4376H11.4377H11.4378H11.4378H11.4379H11.438H11.438H11.4381H11.4382H11.4382H11.4383H11.4384H11.4384H11.4385H11.4386H11.4386H11.4387H11.4388H11.4388H11.4389H11.439H11.439H11.4391H11.4392H11.4392H11.4393H11.4394H11.4394H11.4395H11.4396H11.4396H11.4397H11.4398H11.4398H11.4399H11.44H11.44H11.4401H11.4402H11.4402H11.4403H11.4404H11.4404H11.4405H11.4406H11.4406H11.4407H11.4408H11.4408H11.4409H11.441H11.441H11.4411H11.4412H11.4412H11.4413H11.4414H11.4414H11.4415H11.4416H11.4416H11.4417H11.4418H11.4418H11.4419H11.442H11.442H11.4421H11.4422H11.4422H11.4423H11.4424H14.3461C14.4108 14.3572 14.4675 14.3247 14.4935 14.2674ZM18.9602 21.3608L16.783 18.0657L16.7784 18.0751L16.7352 18.0136C16.6859 17.9434 16.6079 17.8993 16.5211 17.8993H16.2421C16.1538 17.8993 16.077 17.9387 16.0287 18.0124L16.0286 18.0126L13.8082 21.3729L13.7711 21.3486L13.8081 21.3731L13.8081 21.3731C13.7544 21.4551 13.6664 21.5031 13.5661 21.5031H12.8259C12.7174 21.5031 12.6173 21.441 12.5645 21.3402C12.5107 21.2376 12.5248 21.1225 12.5772 21.0359L12.5772 21.0359L12.5782 21.0343L14.4798 18.1606L14.4798 18.1605L14.4808 18.1592C14.5161 18.1098 14.5213 18.0468 14.489 17.9857L14.4889 17.9857L14.4878 17.9833C14.4616 17.9254 14.4101 17.8935 14.3404 17.8935H11.4367C11.2684 17.8935 11.1417 17.7563 11.1417 17.5941V16.9683C11.1417 16.799 11.2754 16.669 11.4367 16.669H11.4367H11.4367H11.4368H11.4368H11.4368H11.4369H11.4369H11.4369H11.437H11.437H11.4371H11.4371H11.4371H11.4372H11.4372H11.4372H11.4373H11.4373H11.4373H11.4374H11.4374H11.4375H11.4375H11.4375H11.4376H11.4376H11.4377H11.4377H11.4377H11.4378H11.4378H11.4379H11.4379H11.4379H11.438H11.438H11.4381H11.4381H11.4382H11.4382H11.4382H11.4383H11.4383H11.4384H11.4384H11.4385H11.4385H11.4385H11.4386H11.4386H11.4387H11.4387H11.4388H11.4388H11.4389H11.4389H11.439H11.439H11.439H11.4391H11.4391H11.4392H11.4392H11.4393H11.4393H11.4394H11.4394H11.4395H11.4395H11.4396H11.4396H11.4397H11.4397H11.4398H11.4398H11.4399H11.4399H11.44H11.44H11.4401H11.4401H11.4402H11.4402H11.4403H11.4403H11.4404H11.4404H11.4405H11.4405H11.4406H11.4406H11.4407H11.4407H11.4408H11.4408H11.4409H11.4409H11.441H11.441H11.4411H11.4411H11.4412H11.4413H11.4413H11.4414H11.4414H11.4415H11.4415H11.4416H11.4416H11.4417H11.4417H11.4418H11.4419H11.4419H11.442H11.442H11.4421H11.4421H11.4422H11.4422H11.4423H11.4423H11.4424H11.4425H11.4425H11.4426H11.4426H11.4427H11.4427H11.4428H11.4429H11.4429H11.443H11.443H11.4431H11.4431H11.4432H11.4433H11.4433H11.4434H11.4434H11.4435H11.4435H11.4436H11.4437H11.4437H11.4438H11.4438H11.4439H11.4439H11.444H11.4441H11.4441H11.4442H11.4442H11.4443H11.4444H11.4444H11.4445H11.4445H11.4446H11.4447H11.4447H11.4448H11.4448H11.4449H11.4449H11.445H11.4451H11.4451H11.4452H11.4452H11.4453H11.4454H11.4454H11.4455H11.4455H11.4456H11.4457H11.4457H11.4458H11.4458H11.4459H11.446H11.446H11.4461H11.4461H11.4462H11.4463H11.4463H11.4464H11.4464H11.4465H11.4466H11.4466H11.4467H11.4467H11.4468H11.4469H11.4469H11.447H11.447H11.4471H11.4472H11.4472H11.4473H11.4473H11.4474H11.4475H11.4475H11.4476H11.4476H11.4477H11.4478H11.4478H11.4479H11.4479H11.448H11.4481H11.4481H11.4482H11.4482H11.4483H11.4484H11.4484H11.4485H11.4485H11.4486H11.4487H11.4487H11.4488H11.4488H11.4489H11.449H11.449H11.4491H11.4491H11.4492H11.4492H11.4493H11.4494H11.4494H11.4495H11.4495H11.4496H11.4497H11.4497H11.4498H11.4498H11.4499H11.45H11.45H11.4501H11.4501H11.4502H11.4502H11.4503H11.4504H11.4504H11.4505H11.4505H11.4506H11.4507H11.4507H11.4508H11.4508H11.4509H11.4509H11.451H11.4511H11.4511H11.4512H11.4512H11.4513H11.4513H11.4514H11.4515H11.4515H11.4516H11.4516H11.4517H11.4517H11.4518H11.4519H11.4519H11.452H11.452H11.4521H11.4521H11.4522H11.4522H11.4523H11.4524H11.4524H11.4525H11.4525H11.4526H11.4526H11.4527H11.4527H11.4528H11.4528H11.4529H11.4529H11.453H11.4531H11.4531H11.4532H11.4532H11.4533H11.4533H11.4534H11.4534H11.4535H11.4535H11.4536H11.4536H11.4537H11.4537H11.4538H11.4538H11.4539H11.4539H11.454H11.454H11.4541H11.4541H11.4542H11.4542H11.4543H11.4543H11.4544H11.4544H11.4545H11.4545H11.4546H11.4546H11.4547H11.4547H11.4548H11.4548H11.4549H11.4549H11.455H11.455H11.4551H11.4551H11.4552H11.4552H11.4553H11.4553H11.4554H11.4554H11.4554H11.4555H11.4555H11.4556H11.4556H11.4557H11.4557H11.4558H11.4558H11.4558H11.4559H11.4559H11.456H11.456H11.4561H11.4561H11.4562H11.4562H11.4562H11.4563H11.4563H11.4564H11.4564H11.4564H11.4565H11.4565H11.4566H11.4566H11.4566H11.4567H11.4567H11.4568H11.4568H11.4568H11.4569H11.4569H11.457H11.457H11.457H11.4571H11.4571H11.4571H11.4572H11.4572H11.4573H11.4573H11.4573H11.4574H11.4574H11.4574H11.4575H11.4575H11.4575H11.4576H11.4576H11.4576H11.4577H11.4577H11.4577H11.4578H11.4578H11.4578H11.4579H11.4579H11.4579H11.458H11.458H11.458H11.458H11.4581H11.4581H11.4581H11.4582H11.4582H11.4582H11.4582H11.4583H11.4583H11.4583H11.4584H11.4584H11.4584H11.4584H11.4585H11.4585H11.4585H11.4585H11.4586H11.4586H11.4586H11.4586H11.4587H11.4587H11.4587H11.4587H11.4587H11.4588H11.4588H11.4588H11.4588H11.4588H11.4589H11.4589H11.4589H11.4589H11.4589H11.459H11.459H11.459H11.459H11.459H11.4591H11.4591H11.4591H11.4591H11.4591H11.4591H11.4591H11.4592H11.4592H11.4592H11.4592H11.4592H11.4592H11.4592H11.4592H11.4593H11.4593H11.4593H11.4593H11.4593H11.4593H11.4593H11.4593H11.4593H11.4594H11.4594H11.4594H11.4594H11.4594H11.4594H11.4594H11.4594H11.4594H11.4594H21.3379C21.5061 16.669 21.6328 16.8061 21.6328 16.9683V17.5941C21.6328 17.7634 21.4991 17.8935 21.3379 17.8935H18.4398C18.3789 17.8935 18.3242 17.9286 18.2909 17.9864C18.2592 18.0466 18.2636 18.1102 18.3005 18.1665C18.3005 18.1665 18.3005 18.1665 18.3005 18.1665L20.196 21.0339C20.1961 21.034 20.1961 21.034 20.1962 21.0341C20.2566 21.1231 20.2633 21.2454 20.2094 21.3414C20.1565 21.4357 20.0567 21.4973 19.9486 21.4973H19.2084C19.1154 21.4973 19.0149 21.4505 18.9602 21.3608Z" fill="#F7F6F5" stroke="#F7F6F5" style="fill:#F7F6F5;fill:color(display-p3 0.9686 0.9647 0.9608);fill-opacity:1;stroke:#F7F6F5;stroke:color(display-p3 0.9686 0.9647 0.9608);stroke-opacity:1;" stroke-width="0.0888887"/>
<defs>
<linearGradient id="paint0_linear_1529_800" x1="11.3748" y1="34.202" x2="50.0915" y2="15.0555" gradientUnits="userSpaceOnUse">
<stop stop-color="#FC6432" style="stop-color:#FC6432;stop-color:color(display-p3 0.9882 0.3922 0.1961);stop-opacity:1;"/>
<stop offset="0.941202" stop-color="#ECEAE8" style="stop-color:#ECEAE8;stop-color:color(display-p3 0.9255 0.9176 0.9098);stop-opacity:1;"/>
</linearGradient>
</defs>
</svg>