<svg width="98" height="33" viewBox="0 0 98 33" fill="none" xmlns="http://www.w3.org/2000/svg">
<path d="M81.6723 0.0654297H54.0423C49.3623 0.0654297 45.1523 2.08543 42.2223 5.28543L38.8323 8.64543C36.9923 10.4754 34.0323 10.4754 32.1923 8.64543L28.8023 5.29543C25.8623 2.08543 21.6523 0.0654297 16.9623 0.0654297C8.09234 0.0654297 0.902344 7.25543 0.902344 16.1254C0.902344 24.9954 8.09234 32.1854 16.9623 32.1854C21.6523 32.1854 25.8623 30.1654 28.8023 26.9554L32.1923 23.6054C34.0323 21.7754 36.9923 21.7754 38.8323 23.6054L42.2223 26.9754C45.1623 30.1654 49.3623 32.1854 54.0523 32.1854H81.6823C90.5523 32.1854 97.7423 24.9954 97.7423 16.1254C97.7423 7.25543 90.5423 0.0654297 81.6723 0.0654297Z" fill="url(#paint0_linear_1803_9477)" style=""/>
<path d="M15.0087 14.2674L15.0085 14.2673L15.0106 14.2636C15.0412 14.2101 15.0379 14.1413 15.0007 14.0843C15.0006 14.0842 15.0006 14.0842 15.0006 14.0841L13.099 11.2163L13.099 11.2163L13.0985 11.2155C13.0395 11.1221 13.0317 11.0064 13.0856 10.9099C13.1394 10.8077 13.2404 10.7533 13.3467 10.7533H14.0869C14.1818 10.7533 14.2751 10.8016 14.3343 10.8887L14.3347 10.8892L16.5552 14.2497L16.5553 14.2498C16.6036 14.3235 16.6803 14.363 16.7686 14.363H17.0476C17.1342 14.363 17.212 14.3191 17.2613 14.2492L19.4696 10.8841C19.5243 10.7944 19.6248 10.7475 19.7179 10.7475H20.4581C20.5646 10.7475 20.672 10.808 20.72 10.9115C20.7732 11.0138 20.759 11.1284 20.7068 11.2148L20.7068 11.2148L20.7058 11.2163L18.8041 14.0901L18.8041 14.0901L18.8032 14.0914C18.7675 14.1413 18.7632 14.2095 18.7942 14.2636L18.795 14.265C18.8273 14.3261 18.8807 14.3572 18.9436 14.3572H21.853C22.0213 14.3572 22.148 14.4944 22.148 14.6566V15.2823C22.148 15.4516 22.0143 15.5817 21.853 15.5817H11.9518C11.7835 15.5817 11.6568 15.4445 11.6568 15.2823V14.6566C11.6568 14.5004 11.7707 14.3779 11.9172 14.3576L11.9172 14.3572H11.9233H11.9234H11.9235H11.9235H11.9236H11.9237H11.9237H11.9238H11.9239H11.9239H11.924H11.9241H11.9241H11.9242H11.9243H11.9243H11.9244H11.9245H11.9245H11.9246H11.9247H11.9247H11.9248H11.9249H11.9249H11.925H11.9251H11.9251H11.9252H11.9253H11.9253H11.9254H11.9255H11.9255H11.9256H11.9257H11.9257H11.9258H11.9259H11.9259H11.926H11.9261H11.9261H11.9262H11.9263H11.9263H11.9264H11.9265H11.9265H11.9266H11.9267H11.9267H11.9268H11.9269H11.9269H11.927H11.9271H11.9271H11.9272H11.9273H11.9273H11.9274H11.9275H11.9275H11.9276H11.9277H11.9277H11.9278H11.9279H11.9279H11.928H11.9281H11.9281H11.9282H11.9283H11.9283H11.9284H11.9285H11.9285H11.9286H11.9287H11.9287H11.9288H11.9289H11.9289H11.929H11.9291H11.9291H11.9292H11.9293H11.9293H11.9294H11.9295H11.9295H11.9296H11.9297H11.9297H11.9298H11.9299H11.9299H11.93H11.9301H11.9301H11.9302H11.9303H11.9303H11.9304H11.9305H11.9305H11.9306H11.9307H11.9307H11.9308H11.9309H11.9309H11.931H11.9311H11.9311H11.9312H11.9313H11.9313H11.9314H11.9315H11.9315H11.9316H11.9317H11.9317H11.9318H11.9319H11.9319H11.932H11.9321H11.9321H11.9322H11.9323H11.9323H11.9324H11.9325H11.9325H11.9326H11.9327H11.9327H11.9328H11.9329H11.9329H11.933H11.9331H11.9331H11.9332H11.9333H11.9333H11.9334H11.9335H11.9335H11.9336H11.9337H11.9337H11.9338H11.9339H11.9339H11.934H11.9341H11.9341H11.9342H11.9343H11.9343H11.9344H11.9345H11.9345H11.9346H11.9347H11.9347H11.9348H11.9349H11.9349H11.935H11.9351H11.9351H11.9352H11.9353H11.9353H11.9354H11.9355H11.9355H11.9356H11.9357H11.9357H11.9358H11.9359H11.9359H11.936H11.9361H11.9361H11.9362H11.9363H11.9363H11.9364H11.9365H11.9365H11.9366H11.9367H11.9367H11.9368H11.9369H11.9369H11.937H11.9371H11.9372H11.9372H11.9373H11.9374H11.9374H11.9375H11.9376H11.9376H11.9377H11.9378H11.9378H11.9379H11.938H11.938H11.9381H11.9382H11.9382H11.9383H11.9384H11.9384H11.9385H11.9386H11.9386H11.9387H11.9388H11.9388H11.9389H11.939H11.939H11.9391H11.9392H11.9392H11.9393H11.9394H11.9394H11.9395H11.9396H11.9396H11.9397H11.9398H11.9398H11.9399H11.94H11.94H11.9401H11.9402H11.9402H11.9403H11.9404H11.9404H11.9405H11.9406H11.9406H11.9407H11.9408H11.9408H11.9409H11.941H11.941H11.9411H11.9412H11.9412H11.9413H11.9414H11.9414H11.9415H11.9416H11.9416H11.9417H11.9418H11.9418H11.9419H11.942H11.942H11.9421H11.9422H11.9422H11.9423H11.9424H11.9424H11.9425H11.9426H11.9426H11.9427H11.9428H11.9428H11.9429H11.943H11.943H11.9431H11.9432H11.9432H11.9433H11.9434H11.9434H11.9435H11.9436H11.9436H11.9437H11.9438H11.9438H11.9439H11.944H11.944H11.9441H11.9442H11.9442H11.9443H11.9444H11.9444H11.9445H11.9446H11.9446H11.9447H11.9448H11.9448H11.9449H11.945H11.945H11.9451H11.9452H11.9452H11.9453H11.9454H11.9454H11.9455H11.9456H11.9456H11.9457H11.9458H11.9458H11.9459H11.946H11.946H11.9461H11.9462H11.9462H11.9463H11.9464H11.9464H11.9465H11.9466H11.9466H11.9467H11.9468H11.9468H11.9469H11.947H11.947H11.9471H11.9472H11.9472H11.9473H11.9474H11.9474H11.9475H11.9476H11.9476H11.9477H11.9478H11.9478H11.9479H11.948H11.948H11.9481H11.9482H11.9482H11.9483H11.9484H11.9484H11.9485H11.9486H11.9486H11.9487H11.9488H11.9488H11.9489H11.949H11.949H11.9491H11.9492H11.9492H11.9493H11.9494H11.9494H11.9495H11.9496H11.9496H11.9497H11.9498H11.9498H11.9499H11.95H11.95H11.9501H11.9502H11.9502H11.9503H11.9504H11.9504H11.9505H11.9506H11.9506H11.9507H11.9508H11.9508H11.9509H11.951H11.951H11.9511H11.9512H11.9512H11.9513H11.9514H11.9514H11.9515H11.9516H11.9516H11.9517H11.9518H11.9518H11.9519H11.952H11.952H11.9521H11.9522H11.9522H11.9523H11.9524H11.9524H11.9525H11.9526H11.9526H11.9527H11.9528H11.9528H11.9529H11.953H11.953H11.9531H11.9532H11.9532H11.9533H11.9534H11.9534H11.9535H11.9536H11.9536H11.9537H11.9538H11.9538H11.9539H11.954H11.954H11.9541H11.9542H11.9542H11.9543H11.9544H11.9544H11.9545H11.9546H11.9546H11.9547H11.9548H11.9548H11.9549H11.955H11.955H11.9551H11.9552H11.9552H11.9553H11.9554H11.9554H11.9555H11.9556H11.9556H11.9557H11.9558H11.9558H11.9559H11.956H11.956H11.9561H11.9562H11.9562H11.9563H11.9564H11.9564H11.9565H11.9566H11.9566H11.9567H11.9568H11.9568H11.9569H11.957H11.957H11.9571H11.9572H11.9572H11.9573H11.9574H11.9574H11.9575H14.8612C14.926 14.3572 14.9827 14.3247 15.0087 14.2674ZM19.4754 21.3608L17.2981 18.0657L17.2935 18.0751L17.2503 18.0136C17.201 17.9434 17.123 17.8993 17.0362 17.8993H16.7572C16.6689 17.8993 16.5922 17.9387 16.5439 18.0124L16.5438 18.0126L14.3234 21.3729L14.2862 21.3486L14.3233 21.3731L14.3233 21.3731C14.2695 21.4551 14.1815 21.5031 14.0812 21.5031H13.341C13.2326 21.5031 13.1325 21.441 13.0796 21.3402C13.0259 21.2376 13.0399 21.1225 13.0924 21.0359L13.0923 21.0359L13.0933 21.0343L14.995 18.1606L14.995 18.1605L14.9959 18.1592C15.0312 18.1098 15.0365 18.0468 15.0042 17.9857L15.0041 17.9857L15.003 17.9833C14.9767 17.9254 14.9253 17.8935 14.8555 17.8935H11.9518C11.7835 17.8935 11.6568 17.7563 11.6568 17.5941V16.9683C11.6568 16.799 11.7905 16.669 11.9518 16.669H11.9518H11.9519H11.9519H11.9519H11.952H11.952H11.952H11.9521H11.9521H11.9522H11.9522H11.9522H11.9523H11.9523H11.9523H11.9524H11.9524H11.9524H11.9525H11.9525H11.9526H11.9526H11.9526H11.9527H11.9527H11.9528H11.9528H11.9528H11.9529H11.9529H11.953H11.953H11.953H11.9531H11.9531H11.9532H11.9532H11.9532H11.9533H11.9533H11.9534H11.9534H11.9535H11.9535H11.9536H11.9536H11.9536H11.9537H11.9537H11.9538H11.9538H11.9539H11.9539H11.954H11.954H11.954H11.9541H11.9541H11.9542H11.9542H11.9543H11.9543H11.9544H11.9544H11.9545H11.9545H11.9546H11.9546H11.9547H11.9547H11.9548H11.9548H11.9549H11.9549H11.955H11.955H11.9551H11.9551H11.9552H11.9552H11.9553H11.9553H11.9554H11.9554H11.9555H11.9555H11.9556H11.9556H11.9557H11.9557H11.9558H11.9558H11.9559H11.9559H11.956H11.956H11.9561H11.9561H11.9562H11.9562H11.9563H11.9563H11.9564H11.9564H11.9565H11.9566H11.9566H11.9567H11.9567H11.9568H11.9568H11.9569H11.9569H11.957H11.957H11.9571H11.9572H11.9572H11.9573H11.9573H11.9574H11.9574H11.9575H11.9575H11.9576H11.9577H11.9577H11.9578H11.9578H11.9579H11.9579H11.958H11.958H11.9581H11.9582H11.9582H11.9583H11.9583H11.9584H11.9584H11.9585H11.9586H11.9586H11.9587H11.9587H11.9588H11.9589H11.9589H11.959H11.959H11.9591H11.9591H11.9592H11.9593H11.9593H11.9594H11.9594H11.9595H11.9596H11.9596H11.9597H11.9597H11.9598H11.9598H11.9599H11.96H11.96H11.9601H11.9601H11.9602H11.9603H11.9603H11.9604H11.9604H11.9605H11.9606H11.9606H11.9607H11.9607H11.9608H11.9609H11.9609H11.961H11.961H11.9611H11.9612H11.9612H11.9613H11.9613H11.9614H11.9615H11.9615H11.9616H11.9616H11.9617H11.9618H11.9618H11.9619H11.9619H11.962H11.9621H11.9621H11.9622H11.9622H11.9623H11.9624H11.9624H11.9625H11.9625H11.9626H11.9627H11.9627H11.9628H11.9628H11.9629H11.963H11.963H11.9631H11.9631H11.9632H11.9633H11.9633H11.9634H11.9634H11.9635H11.9636H11.9636H11.9637H11.9637H11.9638H11.9639H11.9639H11.964H11.964H11.9641H11.9641H11.9642H11.9643H11.9643H11.9644H11.9644H11.9645H11.9646H11.9646H11.9647H11.9647H11.9648H11.9649H11.9649H11.965H11.965H11.9651H11.9652H11.9652H11.9653H11.9653H11.9654H11.9654H11.9655H11.9656H11.9656H11.9657H11.9657H11.9658H11.9659H11.9659H11.966H11.966H11.9661H11.9661H11.9662H11.9663H11.9663H11.9664H11.9664H11.9665H11.9665H11.9666H11.9667H11.9667H11.9668H11.9668H11.9669H11.9669H11.967H11.967H11.9671H11.9672H11.9672H11.9673H11.9673H11.9674H11.9674H11.9675H11.9675H11.9676H11.9677H11.9677H11.9678H11.9678H11.9679H11.9679H11.968H11.968H11.9681H11.9681H11.9682H11.9682H11.9683H11.9684H11.9684H11.9685H11.9685H11.9686H11.9686H11.9687H11.9687H11.9688H11.9688H11.9689H11.9689H11.969H11.969H11.9691H11.9691H11.9692H11.9692H11.9693H11.9693H11.9694H11.9694H11.9695H11.9695H11.9696H11.9696H11.9697H11.9697H11.9698H11.9698H11.9699H11.9699H11.97H11.97H11.9701H11.9701H11.9702H11.9702H11.9703H11.9703H11.9704H11.9704H11.9704H11.9705H11.9705H11.9706H11.9706H11.9707H11.9707H11.9708H11.9708H11.9709H11.9709H11.9709H11.971H11.971H11.9711H11.9711H11.9712H11.9712H11.9712H11.9713H11.9713H11.9714H11.9714H11.9715H11.9715H11.9715H11.9716H11.9716H11.9717H11.9717H11.9717H11.9718H11.9718H11.9719H11.9719H11.9719H11.972H11.972H11.9721H11.9721H11.9721H11.9722H11.9722H11.9722H11.9723H11.9723H11.9724H11.9724H11.9724H11.9725H11.9725H11.9725H11.9726H11.9726H11.9726H11.9727H11.9727H11.9727H11.9728H11.9728H11.9728H11.9729H11.9729H11.9729H11.973H11.973H11.973H11.9731H11.9731H11.9731H11.9732H11.9732H11.9732H11.9732H11.9733H11.9733H11.9733H11.9734H11.9734H11.9734H11.9734H11.9735H11.9735H11.9735H11.9735H11.9736H11.9736H11.9736H11.9736H11.9737H11.9737H11.9737H11.9737H11.9738H11.9738H11.9738H11.9738H11.9739H11.9739H11.9739H11.9739H11.9739H11.974H11.974H11.974H11.974H11.974H11.9741H11.9741H11.9741H11.9741H11.9741H11.9742H11.9742H11.9742H11.9742H11.9742H11.9742H11.9743H11.9743H11.9743H11.9743H11.9743H11.9743H11.9743H11.9743H11.9744H11.9744H11.9744H11.9744H11.9744H11.9744H11.9744H11.9744H11.9745H11.9745H11.9745H11.9745H11.9745H11.9745H11.9745H11.9745H11.9745H11.9745H11.9745H11.9746H11.9746H11.9746H21.853C22.0213 16.669 22.148 16.8061 22.148 16.9683V17.5941C22.148 17.7634 22.0143 17.8935 21.853 17.8935H18.9549C18.894 17.8935 18.8393 17.9286 18.806 17.9864C18.7744 18.0466 18.7787 18.1102 18.8156 18.1665C18.8156 18.1665 18.8156 18.1665 18.8156 18.1665L20.7112 21.0339C20.7112 21.034 20.7113 21.034 20.7113 21.0341C20.7718 21.1231 20.7784 21.2454 20.7246 21.3414C20.6716 21.4357 20.5718 21.4973 20.4638 21.4973H19.7236C19.6305 21.4973 19.53 21.4505 19.4754 21.3608Z" fill="#F7F6F5" stroke="#F7F6F5" style="fill:#F7F6F5;fill:color(display-p3 0.9686 0.9647 0.9608);fill-opacity:1;stroke:#F7F6F5;stroke:color(display-p3 0.9686 0.9647 0.9608);stroke-opacity:1;" stroke-width="0.0888887"/>
<defs>
<linearGradient id="paint0_linear_1803_9477" x1="11.8899" y1="34.202" x2="50.6066" y2="15.0555" gradientUnits="userSpaceOnUse">
<stop stop-color="#FC6432" style="stop-color:#FC6432;stop-color:color(display-p3 0.9882 0.3922 0.1961);stop-opacity:1;"/>
<stop offset="0.941202" stop-color="#2D2C2A" style="stop-color:#2D2C2A;stop-color:color(display-p3 0.1765 0.1725 0.1647);stop-opacity:1;"/>
</linearGradient>
</defs>
</svg>
