<svg width="400" height="400" viewBox="0 0 400 400" fill="none" xmlns="http://www.w3.org/2000/svg">
<path fill-rule="evenodd" clip-rule="evenodd" d="M200 400C310.457 400 400 310.457 400 200C400 89.543 310.457 0 200 0C89.543 0 0 89.543 0 200C0 310.457 89.543 400 200 400ZM300 163.476H240.218L282.2 100H250.462L199.916 176.574L149.538 100H117.8L159.782 163.476H100V187.993H300V163.476ZM239.043 235.684L281.528 300H249.79L199.916 224.433L150.042 300H118.472L160.957 235.852H100V211.503H300V235.684H239.043Z" fill="#7F80FF"/>
</svg>
