<svg xmlns="http://www.w3.org/2000/svg" width="54" height="33" viewBox="0 0 54 33" fill="none">
<path d="M53.6507 0.642578C48.9707 0.642578 44.7607 2.66258 41.8307 5.86258L38.4407 9.22258C36.6007 11.0526 33.6407 11.0526 31.8007 9.22258L28.4107 5.87258C25.4707 2.66258 21.2607 0.642578 16.5707 0.642578C7.70074 0.642578 0.510742 7.83258 0.510742 16.7026C0.510742 25.5726 7.70074 32.7626 16.5707 32.7626C21.2607 32.7626 25.4707 30.7426 28.4107 27.5326L31.8007 24.1826C33.6407 22.3526 36.6007 22.3526 38.4407 24.1826L41.8307 27.5526C44.7707 30.7426 48.9707 32.7626 53.6607 32.7626V0.642578H53.6507Z" fill="url(#paint0_linear_2893_13797)" style=""/>
<path d="M14.6776 14.8445L14.6774 14.8445L14.6795 14.8408C14.7102 14.7873 14.7069 14.7184 14.6696 14.6614C14.6696 14.6614 14.6695 14.6613 14.6695 14.6613L12.768 11.7935L12.768 11.7935L12.7674 11.7927C12.7084 11.6992 12.7007 11.5835 12.7546 11.487C12.8083 11.3849 12.9093 11.3305 13.0157 11.3305H13.7559C13.8508 11.3305 13.944 11.3787 14.0033 11.4658L14.0036 11.4663L16.2241 14.8268L16.2242 14.827C16.2725 14.9007 16.3493 14.9401 16.4375 14.9401H16.7165C16.8031 14.9401 16.881 14.8963 16.9303 14.8263L19.1386 11.4613C19.1932 11.3716 19.2937 11.3247 19.3868 11.3247H20.127C20.2335 11.3247 20.341 11.3851 20.389 11.4886C20.4421 11.5909 20.4279 11.7055 20.3757 11.7919L20.3757 11.7919L20.3747 11.7934L18.4731 14.6673L18.4731 14.6673L18.4722 14.6686C18.4365 14.7185 18.4322 14.7867 18.4632 14.8408L18.4639 14.8421C18.4963 14.9032 18.5497 14.9343 18.6125 14.9343H21.5219C21.6902 14.9343 21.8169 15.0715 21.8169 15.2337V15.8595C21.8169 16.0288 21.6832 16.1588 21.5219 16.1588H11.6208C11.4525 16.1588 11.3258 16.0217 11.3258 15.8595V15.2337C11.3258 15.0775 11.4397 14.9551 11.5862 14.9348L11.5861 14.9343H11.5923H11.5924H11.5924H11.5925H11.5926H11.5926H11.5927H11.5928H11.5928H11.5929H11.593H11.593H11.5931H11.5932H11.5932H11.5933H11.5934H11.5934H11.5935H11.5936H11.5936H11.5937H11.5938H11.5938H11.5939H11.594H11.594H11.5941H11.5942H11.5942H11.5943H11.5944H11.5944H11.5945H11.5946H11.5946H11.5947H11.5948H11.5948H11.5949H11.595H11.595H11.5951H11.5952H11.5952H11.5953H11.5954H11.5954H11.5955H11.5956H11.5956H11.5957H11.5958H11.5958H11.5959H11.596H11.596H11.5961H11.5962H11.5962H11.5963H11.5964H11.5964H11.5965H11.5966H11.5966H11.5967H11.5968H11.5968H11.5969H11.597H11.597H11.5971H11.5972H11.5972H11.5973H11.5974H11.5974H11.5975H11.5976H11.5976H11.5977H11.5978H11.5978H11.5979H11.598H11.598H11.5981H11.5982H11.5982H11.5983H11.5984H11.5984H11.5985H11.5986H11.5986H11.5987H11.5988H11.5988H11.5989H11.599H11.599H11.5991H11.5992H11.5992H11.5993H11.5994H11.5994H11.5995H11.5996H11.5996H11.5997H11.5998H11.5998H11.5999H11.6H11.6H11.6001H11.6002H11.6002H11.6003H11.6004H11.6004H11.6005H11.6006H11.6006H11.6007H11.6008H11.6008H11.6009H11.601H11.601H11.6011H11.6012H11.6012H11.6013H11.6014H11.6014H11.6015H11.6016H11.6016H11.6017H11.6018H11.6018H11.6019H11.602H11.602H11.6021H11.6022H11.6022H11.6023H11.6024H11.6024H11.6025H11.6026H11.6026H11.6027H11.6028H11.6028H11.6029H11.603H11.603H11.6031H11.6032H11.6032H11.6033H11.6034H11.6034H11.6035H11.6036H11.6036H11.6037H11.6038H11.6038H11.6039H11.604H11.604H11.6041H11.6042H11.6042H11.6043H11.6044H11.6044H11.6045H11.6046H11.6046H11.6047H11.6048H11.6048H11.6049H11.605H11.605H11.6051H11.6052H11.6052H11.6053H11.6054H11.6054H11.6055H11.6056H11.6056H11.6057H11.6058H11.6058H11.6059H11.606H11.606H11.6061H11.6062H11.6062H11.6063H11.6064H11.6064H11.6065H11.6066H11.6066H11.6067H11.6068H11.6068H11.6069H11.607H11.607H11.6071H11.6072H11.6072H11.6073H11.6074H11.6074H11.6075H11.6076H11.6076H11.6077H11.6078H11.6078H11.6079H11.608H11.608H11.6081H11.6082H11.6082H11.6083H11.6084H11.6084H11.6085H11.6086H11.6086H11.6087H11.6088H11.6088H11.6089H11.609H11.609H11.6091H11.6092H11.6092H11.6093H11.6094H11.6094H11.6095H11.6096H11.6096H11.6097H11.6098H11.6098H11.6099H11.61H11.61H11.6101H11.6102H11.6102H11.6103H11.6104H11.6104H11.6105H11.6106H11.6106H11.6107H11.6108H11.6108H11.6109H11.611H11.611H11.6111H11.6112H11.6112H11.6113H11.6114H11.6114H11.6115H11.6116H11.6116H11.6117H11.6118H11.6118H11.6119H11.612H11.612H11.6121H11.6122H11.6122H11.6123H11.6124H11.6124H11.6125H11.6126H11.6126H11.6127H11.6128H11.6128H11.6129H11.613H11.613H11.6131H11.6132H11.6132H11.6133H11.6134H11.6134H11.6135H11.6136H11.6136H11.6137H11.6138H11.6138H11.6139H11.614H11.614H11.6141H11.6142H11.6142H11.6143H11.6144H11.6144H11.6145H11.6146H11.6146H11.6147H11.6148H11.6148H11.6149H11.615H11.615H11.6151H11.6152H11.6152H11.6153H11.6154H11.6154H11.6155H11.6156H11.6156H11.6157H11.6158H11.6158H11.6159H11.616H11.616H11.6161H11.6162H11.6162H11.6163H11.6164H11.6164H11.6165H11.6166H11.6166H11.6167H11.6168H11.6168H11.6169H11.617H11.617H11.6171H11.6172H11.6172H11.6173H11.6174H11.6174H11.6175H11.6176H11.6176H11.6177H11.6178H11.6178H11.6179H11.618H11.618H11.6181H11.6182H11.6182H11.6183H11.6184H11.6184H11.6185H11.6186H11.6186H11.6187H11.6188H11.6188H11.6189H11.619H11.619H11.6191H11.6192H11.6192H11.6193H11.6194H11.6194H11.6195H11.6196H11.6196H11.6197H11.6198H11.6198H11.6199H11.62H11.62H11.6201H11.6202H11.6202H11.6203H11.6204H11.6204H11.6205H11.6206H11.6206H11.6207H11.6208H11.6208H11.6209H11.621H11.621H11.6211H11.6212H11.6212H11.6213H11.6214H11.6214H11.6215H11.6216H11.6216H11.6217H11.6218H11.6218H11.6219H11.622H11.622H11.6221H11.6222H11.6222H11.6223H11.6224H11.6224H11.6225H11.6226H11.6226H11.6227H11.6228H11.6228H11.6229H11.623H11.623H11.6231H11.6232H11.6232H11.6233H11.6234H11.6234H11.6235H11.6236H11.6236H11.6237H11.6238H11.6238H11.6239H11.624H11.624H11.6241H11.6242H11.6242H11.6243H11.6244H11.6244H11.6245H11.6246H11.6246H11.6247H11.6248H11.6248H11.6249H11.625H11.625H11.6251H11.6252H11.6252H11.6253H11.6254H11.6254H11.6255H11.6256H11.6256H11.6257H11.6258H11.6258H11.6259H11.626H11.626H11.6261H11.6262H11.6262H11.6263H11.6264H11.6264H14.5302C14.5949 14.9343 14.6516 14.9018 14.6776 14.8445ZM19.1443 21.9379L16.967 18.6429L16.9624 18.6522L16.9193 18.5908C16.87 18.5205 16.792 18.4764 16.7051 18.4764H16.4262C16.3379 18.4764 16.2611 18.5158 16.2128 18.5896L16.2127 18.5897L13.9923 21.9501L13.9551 21.9257L13.9922 21.9502L13.9922 21.9502C13.9384 22.0322 13.8505 22.0803 13.7502 22.0803H13.01C12.9015 22.0803 12.8014 22.0182 12.7486 21.9174C12.6948 21.8148 12.7089 21.6997 12.7613 21.613L12.7613 21.613L12.7623 21.6115L14.6639 18.7377L14.6639 18.7377L14.6648 18.7364C14.7002 18.6869 14.7054 18.6239 14.6731 18.5628L14.673 18.5629L14.6719 18.5604C14.6456 18.5025 14.5942 18.4706 14.5245 18.4706H11.6208C11.4525 18.4706 11.3258 18.3334 11.3258 18.1712V17.5455C11.3258 17.3762 11.4595 17.2461 11.6208 17.2461H11.6208H11.6208H11.6209H11.6209H11.6209H11.621H11.621H11.621H11.6211H11.6211H11.6211H11.6212H11.6212H11.6212H11.6213H11.6213H11.6214H11.6214H11.6214H11.6215H11.6215H11.6215H11.6216H11.6216H11.6217H11.6217H11.6217H11.6218H11.6218H11.6219H11.6219H11.6219H11.622H11.622H11.6221H11.6221H11.6222H11.6222H11.6222H11.6223H11.6223H11.6224H11.6224H11.6225H11.6225H11.6225H11.6226H11.6226H11.6227H11.6227H11.6228H11.6228H11.6229H11.6229H11.6229H11.623H11.623H11.6231H11.6231H11.6232H11.6232H11.6233H11.6233H11.6234H11.6234H11.6235H11.6235H11.6236H11.6236H11.6237H11.6237H11.6237H11.6238H11.6238H11.6239H11.6239H11.624H11.624H11.6241H11.6241H11.6242H11.6242H11.6243H11.6243H11.6244H11.6244H11.6245H11.6246H11.6246H11.6247H11.6247H11.6248H11.6248H11.6249H11.6249H11.625H11.625H11.6251H11.6251H11.6252H11.6252H11.6253H11.6253H11.6254H11.6254H11.6255H11.6256H11.6256H11.6257H11.6257H11.6258H11.6258H11.6259H11.6259H11.626H11.626H11.6261H11.6262H11.6262H11.6263H11.6263H11.6264H11.6264H11.6265H11.6265H11.6266H11.6267H11.6267H11.6268H11.6268H11.6269H11.6269H11.627H11.6271H11.6271H11.6272H11.6272H11.6273H11.6273H11.6274H11.6275H11.6275H11.6276H11.6276H11.6277H11.6277H11.6278H11.6279H11.6279H11.628H11.628H11.6281H11.6281H11.6282H11.6283H11.6283H11.6284H11.6284H11.6285H11.6286H11.6286H11.6287H11.6287H11.6288H11.6289H11.6289H11.629H11.629H11.6291H11.6291H11.6292H11.6293H11.6293H11.6294H11.6294H11.6295H11.6296H11.6296H11.6297H11.6297H11.6298H11.6299H11.6299H11.63H11.63H11.6301H11.6302H11.6302H11.6303H11.6303H11.6304H11.6305H11.6305H11.6306H11.6306H11.6307H11.6308H11.6308H11.6309H11.6309H11.631H11.6311H11.6311H11.6312H11.6312H11.6313H11.6314H11.6314H11.6315H11.6315H11.6316H11.6317H11.6317H11.6318H11.6318H11.6319H11.632H11.632H11.6321H11.6321H11.6322H11.6323H11.6323H11.6324H11.6324H11.6325H11.6326H11.6326H11.6327H11.6327H11.6328H11.6329H11.6329H11.633H11.633H11.6331H11.6332H11.6332H11.6333H11.6333H11.6334H11.6335H11.6335H11.6336H11.6336H11.6337H11.6337H11.6338H11.6339H11.6339H11.634H11.634H11.6341H11.6342H11.6342H11.6343H11.6343H11.6344H11.6344H11.6345H11.6346H11.6346H11.6347H11.6347H11.6348H11.6349H11.6349H11.635H11.635H11.6351H11.6351H11.6352H11.6353H11.6353H11.6354H11.6354H11.6355H11.6355H11.6356H11.6357H11.6357H11.6358H11.6358H11.6359H11.6359H11.636H11.636H11.6361H11.6362H11.6362H11.6363H11.6363H11.6364H11.6364H11.6365H11.6365H11.6366H11.6367H11.6367H11.6368H11.6368H11.6369H11.6369H11.637H11.637H11.6371H11.6371H11.6372H11.6372H11.6373H11.6374H11.6374H11.6375H11.6375H11.6376H11.6376H11.6377H11.6377H11.6378H11.6378H11.6379H11.6379H11.638H11.638H11.6381H11.6381H11.6382H11.6382H11.6383H11.6383H11.6384H11.6384H11.6385H11.6385H11.6386H11.6386H11.6387H11.6387H11.6388H11.6388H11.6389H11.6389H11.639H11.639H11.6391H11.6391H11.6392H11.6392H11.6392H11.6393H11.6393H11.6394H11.6394H11.6395H11.6395H11.6396H11.6396H11.6397H11.6397H11.6398H11.6398H11.6398H11.6399H11.6399H11.64H11.64H11.6401H11.6401H11.6401H11.6402H11.6402H11.6403H11.6403H11.6404H11.6404H11.6404H11.6405H11.6405H11.6406H11.6406H11.6406H11.6407H11.6407H11.6408H11.6408H11.6408H11.6409H11.6409H11.641H11.641H11.641H11.6411H11.6411H11.6412H11.6412H11.6412H11.6413H11.6413H11.6413H11.6414H11.6414H11.6414H11.6415H11.6415H11.6415H11.6416H11.6416H11.6416H11.6417H11.6417H11.6417H11.6418H11.6418H11.6418H11.6419H11.6419H11.6419H11.642H11.642H11.642H11.6421H11.6421H11.6421H11.6422H11.6422H11.6422H11.6422H11.6423H11.6423H11.6423H11.6424H11.6424H11.6424H11.6424H11.6425H11.6425H11.6425H11.6425H11.6426H11.6426H11.6426H11.6426H11.6427H11.6427H11.6427H11.6427H11.6428H11.6428H11.6428H11.6428H11.6428H11.6429H11.6429H11.6429H11.6429H11.6429H11.643H11.643H11.643H11.643H11.643H11.6431H11.6431H11.6431H11.6431H11.6431H11.6431H11.6432H11.6432H11.6432H11.6432H11.6432H11.6432H11.6433H11.6433H11.6433H11.6433H11.6433H11.6433H11.6433H11.6433H11.6434H11.6434H11.6434H11.6434H11.6434H11.6434H11.6434H11.6434H11.6434H11.6434H11.6434H11.6435H11.6435H11.6435H11.6435H11.6435H11.6435H11.6435H21.5219C21.6902 17.2461 21.8169 17.3833 21.8169 17.5455V18.1712C21.8169 18.3406 21.6832 18.4706 21.5219 18.4706H18.6239C18.5629 18.4706 18.5083 18.5058 18.4749 18.5635C18.4433 18.6238 18.4477 18.6873 18.4845 18.7436C18.4846 18.7436 18.4846 18.7436 18.4846 18.7437L20.3801 21.611C20.3802 21.6111 20.3802 21.6112 20.3803 21.6113C20.4407 21.7003 20.4474 21.8225 20.3935 21.9185C20.3405 22.0128 20.2408 22.0745 20.1327 22.0745H19.3925C19.2994 22.0745 19.199 22.0276 19.1443 21.9379Z" fill="#F7F6F5" stroke="#F7F6F5" style="fill:#F7F6F5;fill:color(display-p3 0.9686 0.9647 0.9608);fill-opacity:1;stroke:#F7F6F5;stroke:color(display-p3 0.9686 0.9647 0.9608);stroke-opacity:1;" stroke-width="0.0888887"/>
<defs>
<linearGradient id="paint0_linear_2893_13797" x1="16.5995" y1="25.3231" x2="50.156" y2="16.7901" gradientUnits="userSpaceOnUse">
<stop stop-color="#FC6432" style="stop-color:#FC6432;stop-color:color(display-p3 0.9882 0.3922 0.1961);stop-opacity:1;"/>
<stop offset="0.941202" stop-color="#ECEAE8" style="stop-color:#ECEAE8;stop-color:color(display-p3 0.9255 0.9176 0.9098);stop-opacity:1;"/>
</linearGradient>
</defs>
</svg>